<?xml version="1.0" encoding="utf-8"?>
<!-- Svg Vector Icons : http://www.onlinewebfonts.com/icon -->
<!DOCTYPE svg PUBLIC "-//W3C//DTD SVG 1.1//EN" "http://www.w3.org/Graphics/SVG/1.1/DTD/svg11.dtd">
<svg version="1.1" xmlns="http://www.w3.org/2000/svg" xmlns:xlink="http://www.w3.org/1999/xlink" x="0px" y="0px" viewBox="0 0 256 256" enable-background="new 0 0 256 256" xml:space="preserve">
<metadata> Svg Vector Icons : http://www.onlinewebfonts.com/icon </metadata>
<g><g><path fill="#000000" d="M211.4,121.2l-8.1-7.3L160.1,75l12.6-11.4c6.8-6.1,10.2-14.2,10.2-22.2s-3.4-16.1-10.2-22.2c-6.8-6.1-15.7-9.2-24.6-9.2c-8.9,0-17.8,3.1-24.6,9.2L47.7,87.9c-1.1,0.8-2.1,1.6-3.1,2.5c-6.8,6.1-10.2,14.2-10.2,22.2c0,8,3.4,16.1,10.2,22.2L95.9,181l-12.6,11.4c-6.8,6.1-10.2,14.2-10.2,22.2c0,8,3.4,16.1,10.2,22.2c6.7,6.1,15.7,9.2,24.5,9.2h0c8.9,0,17.8-3.1,24.6-9.2l0,0l79-71.2c6.8-6.1,10.2-14.2,10.2-22.2C221.6,135.4,218.1,127.3,211.4,121.2z M135.5,30c3.5-3.2,8-4.7,12.6-4.7c4.6,0,9.1,1.6,12.6,4.7c3.5,3.2,5.2,7.3,5.2,11.4c0,4.1-1.7,8.2-5.2,11.4l-5,4.5L103,105c-1.5-5.3-4.6-10.4-9.2-14.6c-4.6-4.1-10.1-6.9-15.9-8.2L135.5,30z M120.5,226c-3.5,3.2-8,4.7-12.7,4.7c-4.6,0-9.1-1.6-12.6-4.7c-3.5-3.2-5.2-7.2-5.2-11.4c0-4.2,1.7-8.2,5.2-11.4l12.6-11.4l4.6,4.1l8.1,7.3c3.5,3.2,5.2,7.2,5.2,11.4C125.7,218.8,124,222.9,120.5,226z M199.4,154.8L141.5,207c-1.5-5.3-4.5-10.4-9.1-14.6l-8.1-7.3L56.6,124c-3.5-3.2-5.2-7.2-5.2-11.4s1.7-8.2,5.2-11.4c3.5-3.2,8-4.7,12.6-4.7c4.6,0,9.1,1.6,12.6,4.7c3.5,3.2,5.2,7.2,5.3,11.4c0,4.1-1.7,8.2-5.3,11.4l12,10.8l54.3-49l43.2,38.9l8.1,7.3c3.5,3.2,5.2,7.2,5.2,11.4C204.6,147.6,202.9,151.6,199.4,154.8z M144.2,99.3L99,140l12,10.8l45.1-40.7L144.2,99.3z M162.2,115.5l-45.1,40.7l12,10.8l45.1-40.7L162.2,115.5z M135.1,172.5l12,10.8l45.1-40.7l-12-10.8L135.1,172.5z"/></g></g>
</svg>